<?xml version="1.0" encoding="UTF-8" standalone="no"?>
<!-- Created with Inkscape (http://www.inkscape.org/) -->

<svg
   xmlns:dc="http://purl.org/dc/elements/1.1/"
   xmlns:cc="http://creativecommons.org/ns#"
   xmlns:rdf="http://www.w3.org/1999/02/22-rdf-syntax-ns#"
   xmlns:svg="http://www.w3.org/2000/svg"
   xmlns="http://www.w3.org/2000/svg"
   xmlns:sodipodi="http://sodipodi.sourceforge.net/DTD/sodipodi-0.dtd"
   xmlns:inkscape="http://www.inkscape.org/namespaces/inkscape"
   width="210mm"
   height="297mm"
   viewBox="0 0 744.09448819 1052.3622047"
   id="svg7715"
   version="1.1"
   inkscape:version="0.91 r13725"
   sodipodi:docname="health.svg">
  <defs
     id="defs7717" />
  <sodipodi:namedview
     id="base"
     pagecolor="#ffffff"
     bordercolor="#666666"
     borderopacity="1.0"
     inkscape:pageopacity="0.0"
     inkscape:pageshadow="2"
     inkscape:zoom="0.49497475"
     inkscape:cx="16.572945"
     inkscape:cy="861.42857"
     inkscape:document-units="px"
     inkscape:current-layer="layer1"
     showgrid="false"
     inkscape:window-width="1280"
     inkscape:window-height="657"
     inkscape:window-x="-8"
     inkscape:window-y="-8"
     inkscape:window-maximized="1" />
  <metadata
     id="metadata7720">
    <rdf:RDF>
      <cc:Work
         rdf:about="">
        <dc:format>image/svg+xml</dc:format>
        <dc:type
           rdf:resource="http://purl.org/dc/dcmitype/StillImage" />
        <dc:title />
      </cc:Work>
    </rdf:RDF>
  </metadata>
  <g
     inkscape:label="Layer 1"
     inkscape:groupmode="layer"
     id="layer1">
    <g
       id="g8322"
       inkscape:export-filename="C:\Users\aaron\Computer Science\SpecialOps\SpecialOps\res\images\health.png"
       inkscape:export-xdpi="90"
       inkscape:export-ydpi="90">
      <g
         id="g8318">
        <rect
           style="opacity:1;fill:#078a82;fill-opacity:1;stroke:#000000;stroke-width:8.25199986;stroke-linecap:round;stroke-linejoin:round;stroke-miterlimit:4;stroke-dasharray:none;stroke-opacity:1"
           id="rect8265"
           width="235.71428"
           height="235.71428"
           x="90"
           y="138.07649"
           ry="62.857101" />
        <rect
           style="opacity:1;fill:#ffffff;fill-opacity:1;stroke:#000000;stroke-width:7.97203588;stroke-linecap:round;stroke-linejoin:round;stroke-miterlimit:4;stroke-dasharray:none;stroke-opacity:1"
           id="rect8265-1"
           width="228.1371"
           height="192.42281"
           x="93.788589"
           y="140.65079"
           ry="58.592377" />
      </g>
      <path
         inkscape:connector-curvature="0"
         id="rect8284"
         d="m 201.10934,156.91333 c -7.7891,0 -14.05997,6.27086 -14.05997,14.05996 l 0,43.86683 -43.86683,0 c -7.78909,0 -14.05996,6.26932 -14.05996,14.05842 l 0,13.49867 c 0,7.7891 6.27087,14.05843 14.05996,14.05843 l 43.86683,0 0,43.86683 c 0,7.7891 6.27087,14.05996 14.05997,14.05996 l 13.49712,0 c 7.7891,0 14.05997,-6.27086 14.05997,-14.05996 l 0,-43.86683 43.8653,0 c 7.78909,0 14.05996,-6.26933 14.05996,-14.05843 l 0,-13.49867 c 0,-7.7891 -6.27087,-14.05842 -14.05996,-14.05842 l -43.8653,0 0,-43.86683 c 0,-7.7891 -6.27087,-14.05996 -14.05997,-14.05996 l -13.49712,0 z"
         style="opacity:1;fill:#8a0707;fill-opacity:1;stroke:#000000;stroke-width:6.49717522;stroke-linecap:round;stroke-linejoin:round;stroke-miterlimit:4;stroke-dasharray:none;stroke-opacity:1" />
    </g>
    <path
       style="opacity:1;fill:#8a0707;fill-opacity:1;stroke:#060401;stroke-width:8.25199986;stroke-linecap:round;stroke-linejoin:round;stroke-miterlimit:4;stroke-dasharray:none;stroke-opacity:1"
       d="m 782.33923,496.00301 c 22.4353,38.89191 120.1054,48.56736 100.9507,89.17547 -18.6268,39.48886 -86.7223,-30.03119 -129.3539,-20.60405 -12.0997,2.67561 -24.4226,10.17219 -30.8245,20.78247 -16.9097,28.02545 21.1955,89.86503 -10.604,97.62076 -37.9606,9.25837 -37.3517,-69.90123 -64.8898,-97.62073 -8.7337,-8.79121 -18.8348,-17.65055 -30.8246,-20.78247 -19.2071,-5.01724 -47.7046,20.96404 -59.3539,4.88976 -15.5927,-21.51562 29.5363,-46.92719 30.9507,-73.46121 1.2024,-22.55558 -32.2936,-46.25949 -19.5221,-64.88978 9.0593,-13.21513 39.9683,10.22503 47.9253,-3.68167 20.1502,-35.21697 -83.9676,-82.60288 -53.4611,-109.3539 36.7015,-32.18342 73.4094,85.25866 122.0326,80.9507 40.2887,-3.56953 52.0369,-102.80028 87.7469,-83.80781 33.5022,17.81827 -27.1592,75.11452 -19.1755,112.21105 2.6072,12.11464 16,19.3925 20.7825,30.82451 4.9538,11.84174 1.2067,26.6281 7.6207,37.7469 z"
       id="path4136-5-9-4-5"
       inkscape:connector-curvature="0"
       sodipodi:nodetypes="aaaaaaaaaaaaaaaaa"
       inkscape:export-xdpi="10"
       inkscape:export-ydpi="10" />
  </g>
</svg>
