<?xml version="1.0" encoding="UTF-8" standalone="no"?>
<!-- Created with Inkscape (http://www.inkscape.org/) -->

<svg
   xmlns:dc="http://purl.org/dc/elements/1.1/"
   xmlns:cc="http://creativecommons.org/ns#"
   xmlns:rdf="http://www.w3.org/1999/02/22-rdf-syntax-ns#"
   xmlns:svg="http://www.w3.org/2000/svg"
   xmlns="http://www.w3.org/2000/svg"
   xmlns:sodipodi="http://sodipodi.sourceforge.net/DTD/sodipodi-0.dtd"
   xmlns:inkscape="http://www.inkscape.org/namespaces/inkscape"
   width="210mm"
   height="297mm"
   viewBox="0 0 744.09448819 1052.3622047"
   id="svg6920"
   version="1.1"
   inkscape:version="0.91 r13725"
   sodipodi:docname="explosions.svg">
  <defs
     id="defs6922" />
  <sodipodi:namedview
     id="base"
     pagecolor="#ffffff"
     bordercolor="#666666"
     borderopacity="1.0"
     inkscape:pageopacity="0.0"
     inkscape:pageshadow="2"
     inkscape:zoom="1.0411538"
     inkscape:cx="107.74379"
     inkscape:cy="101.29789"
     inkscape:document-units="px"
     inkscape:current-layer="layer1"
     showgrid="false"
     inkscape:window-width="1280"
     inkscape:window-height="657"
     inkscape:window-x="-8"
     inkscape:window-y="-8"
     inkscape:window-maximized="1" />
  <metadata
     id="metadata6925">
    <rdf:RDF>
      <cc:Work
         rdf:about="">
        <dc:format>image/svg+xml</dc:format>
        <dc:type
           rdf:resource="http://purl.org/dc/dcmitype/StillImage" />
      </cc:Work>
    </rdf:RDF>
  </metadata>
  <g
     inkscape:label="Layer 1"
     inkscape:groupmode="layer"
     id="layer1">
    <path
       style="opacity:1;fill:#f4c831;fill-opacity:1;stroke:#000000;stroke-width:9.58100033;stroke-linecap:round;stroke-linejoin:round;stroke-miterlimit:4;stroke-dasharray:none;stroke-opacity:1"
       d="m -623.43777,-2802.2047 a 91.428574,91.428574 0 0 0 -91.2325,87.498 242.85715,242.85715 0 0 0 -15.6172,11.8965 131.42857,131.42857 0 0 0 -44.58,-7.9649 131.42857,131.42857 0 0 0 -131.4278,131.4278 131.42857,131.42857 0 0 0 97.1778,126.7305 242.85715,242.85715 0 0 0 4.8515,14.9589 84.285713,84.285713 0 0 0 -24.8867,59.7383 84.285713,84.285713 0 0 0 84.2852,84.2871 84.285713,84.285713 0 0 0 46.5136,-14.0566 242.85715,242.85715 0 0 0 10.9805,6.2226 124.28571,124.28571 0 0 0 116.791,82.1192 124.28571,124.28571 0 0 0 118.8946,-88.1758 242.85715,242.85715 0 0 0 15.5996,-10.0176 94.285713,94.285713 0 0 0 55.5058,18.1934 94.285713,94.285713 0 0 0 94.2871,-94.2852 94.285713,94.285713 0 0 0 -28.8027,-67.6953 124.28571,124.28571 0 0 0 55.9453,-103.7344 124.28571,124.28571 0 0 0 -102.4277,-122.2363 108.57143,108.57143 0 0 0 -107.5723,-94.9062 108.57143,108.57143 0 0 0 -70.0723,25.7929 242.85715,242.85715 0 0 0 -5.6074,-0.8476 91.428574,91.428574 0 0 0 -78.6054,-44.9453 z"
       id="path8054"
       inkscape:connector-curvature="0" />
    <circle
       style="opacity:1;fill:#f4c831;fill-opacity:1;stroke:#000000;stroke-width:9.58100033;stroke-linecap:round;stroke-linejoin:round;stroke-miterlimit:4;stroke-dasharray:none;stroke-opacity:1"
       id="path8147-5"
       cx="-587.95508"
       cy="-1458.3741"
       r="224.25386" />
    <circle
       style="opacity:1;fill:#f4c831;fill-opacity:1;stroke:#000000;stroke-width:9.58100033;stroke-linecap:round;stroke-linejoin:round;stroke-miterlimit:4;stroke-dasharray:none;stroke-opacity:1"
       id="path8149-2"
       cx="-762.30444"
       cy="-1400.3494"
       r="75.157387" />
    <circle
       style="opacity:1;fill:#f4c831;fill-opacity:1;stroke:#000000;stroke-width:9.58100033;stroke-linecap:round;stroke-linejoin:round;stroke-miterlimit:4;stroke-dasharray:none;stroke-opacity:1"
       id="path8151-6"
       cx="-706.94995"
       cy="-1610.7031"
       r="84.852814" />
    <circle
       style="opacity:1;fill:#f4c831;fill-opacity:1;stroke:#000000;stroke-width:9.58100033;stroke-linecap:round;stroke-linejoin:round;stroke-miterlimit:4;stroke-dasharray:none;stroke-opacity:1"
       id="path8153-1"
       cx="-613.48669"
       cy="-1347.688"
       r="139.40105" />
    <circle
       style="opacity:1;fill:#f4c831;fill-opacity:1;stroke:#000000;stroke-width:9.58100033;stroke-linecap:round;stroke-linejoin:round;stroke-miterlimit:4;stroke-dasharray:none;stroke-opacity:1"
       id="path8155-8"
       cx="-444.67139"
       cy="-1595.3981"
       r="75.038445" />
    <circle
       style="opacity:1;fill:#f4c831;fill-opacity:1;stroke:#000000;stroke-width:9.58100033;stroke-linecap:round;stroke-linejoin:round;stroke-miterlimit:4;stroke-dasharray:none;stroke-opacity:1"
       id="path8159-9"
       cx="-789.51404"
       cy="-1559.4429"
       r="48.487324" />
    <circle
       style="opacity:1;fill:#f4c831;fill-opacity:1;stroke:#000000;stroke-width:9.58100033;stroke-linecap:round;stroke-linejoin:round;stroke-miterlimit:4;stroke-dasharray:none;stroke-opacity:1"
       id="path8161-4"
       cx="-446.24048"
       cy="-1464.7612"
       r="131.31982" />
    <circle
       style="opacity:1;fill:#f4c831;fill-opacity:1;stroke:#000000;stroke-width:9.58100033;stroke-linecap:round;stroke-linejoin:round;stroke-miterlimit:4;stroke-dasharray:none;stroke-opacity:1"
       id="path8163-3"
       cx="-578.08118"
       cy="-1601.9449"
       r="131.31982" />
    <circle
       style="opacity:1;fill:#f4c831;fill-opacity:1;stroke:#000000;stroke-width:9.58100033;stroke-linecap:round;stroke-linejoin:round;stroke-miterlimit:4;stroke-dasharray:none;stroke-opacity:1"
       id="path8165-8"
       cx="-824.65271"
       cy="-1484.7426"
       r="44.446712" />
    <circle
       style="opacity:1;fill:#f4c831;fill-opacity:1;stroke:#000000;stroke-width:9.58100033;stroke-linecap:round;stroke-linejoin:round;stroke-miterlimit:4;stroke-dasharray:none;stroke-opacity:1"
       id="path8169-3"
       cx="-419.42261"
       cy="-1351.0804"
       r="64.649765" />
    <circle
       style="opacity:1;fill:#f4c831;fill-opacity:1;stroke:#000000;stroke-width:9.58100033;stroke-linecap:round;stroke-linejoin:round;stroke-miterlimit:4;stroke-dasharray:none;stroke-opacity:1"
       id="path8171-1"
       cx="-754.15955"
       cy="-1327.3312"
       r="62.629459" />
    <circle
       style="opacity:1;fill:#f4c831;fill-opacity:1;stroke:#000000;stroke-width:9.58100033;stroke-linecap:round;stroke-linejoin:round;stroke-miterlimit:4;stroke-dasharray:none;stroke-opacity:1"
       id="path8173-7"
       cx="-483.64172"
       cy="-1287.3661"
       r="62.629459" />
    <g
       id="g8536"
       transform="matrix(0.21486298,0,0,0.21486297,-107.03402,846.48791)"
       style="stroke-width:10.99958324;stroke-miterlimit:4;stroke-dasharray:none">
      <path
         inkscape:connector-curvature="0"
         id="path8049"
         d="M 959.34273,31.338521 A 120.96527,120.96527 0 0 0 851.0287,98.778212 129.25056,129.25056 0 0 0 791.98046,84.36504 129.25056,129.25056 0 0 0 662.72861,213.6169 a 129.25056,129.25056 0 0 0 1.81694,21.42492 97.76645,97.76645 0 0 0 -16.72853,-1.54055 97.76645,97.76645 0 0 0 -97.76807,97.7658 97.76645,97.76645 0 0 0 13.5115,49.35867 107.7088,107.7088 0 0 0 -59.90913,96.46313 107.7088,107.7088 0 0 0 66.86425,99.60766 84.50998,84.50998 0 0 0 -13.83773,46.21187 84.50998,84.50998 0 0 0 74.44464,83.84198 81.195866,81.195866 0 0 0 -1.53375,15.58218 81.195866,81.195866 0 0 0 56.90054,77.46004 130.90762,130.90762 0 0 0 130.3461,119.72992 130.90762,130.90762 0 0 0 94.54425,-40.5866 147.47821,147.47821 0 0 0 127.50288,73.72874 147.47821,147.47821 0 0 0 126.8005,-72.49404 91.138214,91.138214 0 0 0 22.3334,2.89759 91.138214,91.138214 0 0 0 91.1392,-91.1392 91.138214,91.138214 0 0 0 -0.2877,-6.93472 180.61937,180.61937 0 0 0 116.2818,-168.7125 180.61937,180.61937 0 0 0 -28.7266,-97.71823 81.195866,81.195866 0 0 0 58.5543,-77.93127 81.195866,81.195866 0 0 0 -75.5344,-80.91268 82.852928,82.852928 0 0 0 22.5079,-56.62188 82.852928,82.852928 0 0 0 -70.3962,-81.80756 160.73468,160.73468 0 0 0 0.7997,-15.96051 160.73468,160.73468 0 0 0 -160.7356,-160.733376 160.73468,160.73468 0 0 0 -91.0554,28.491049 120.96527,120.96527 0 0 0 -91.22067,-41.748812 z"
         style="opacity:1;fill:#d23017;fill-opacity:1;stroke:#000000;stroke-width:10.99958324;stroke-linecap:round;stroke-linejoin:round;stroke-miterlimit:4;stroke-dasharray:none;stroke-opacity:1" />
      <path
         inkscape:connector-curvature="0"
         id="path8147"
         d="m 977.57125,160.76835 a 158.1844,158.1844 0 0 0 -117.63886,52.68598 102.21147,102.21147 0 0 0 -37.59351,-7.26274 102.21147,102.21147 0 0 0 -102.20996,102.21231 102.21147,102.21147 0 0 0 0.11997,3.43492 58.406554,58.406554 0 0 0 -55.77033,58.31124 58.406554,58.406554 0 0 0 12.87388,36.556 53.539339,53.539339 0 0 0 -50.3333,53.42708 53.539339,53.539339 0 0 0 52.12604,53.46706 90.532609,90.532609 0 0 0 -14.01728,48.19001 90.532609,90.532609 0 0 0 28.29569,65.5975 75.441798,75.441798 0 0 0 -3.39256,22.35755 75.441798,75.441798 0 0 0 75.44112,75.44349 75.441798,75.441798 0 0 0 30.18023,-6.40164 167.91883,167.91883 0 0 0 139.26942,74.35658 167.91883,167.91883 0 0 0 106.7929,-38.5017 75.441798,75.441798 0 0 0 49.6158,18.68732 75.441798,75.441798 0 0 0 75.3893,-74.41533 77.875406,77.875406 0 0 0 1.9669,0.0987 77.875406,77.875406 0 0 0 77.8761,-77.8738 77.875406,77.875406 0 0 0 -2.8655,-20.92005 158.1844,158.1844 0 0 0 50.8697,-116.01787 158.1844,158.1844 0 0 0 -69.8159,-131.13854 90.389336,90.389336 0 0 0 3.9102,-26.22301 90.389336,90.389336 0 0 0 -90.3877,-90.39007 90.389336,90.389336 0 0 0 -24.0233,3.26082 158.1844,158.1844 0 0 0 -136.67907,-78.94193 z"
         style="opacity:1;fill:#f38e14;fill-opacity:1;stroke:#000000;stroke-width:10.99958324;stroke-linecap:round;stroke-linejoin:round;stroke-miterlimit:4;stroke-dasharray:none;stroke-opacity:1" />
      <path
         inkscape:connector-curvature="0"
         id="path8089"
         d="m 1021.2043,294.59613 a 91.587915,91.587915 0 0 0 -98.83989,14.66268 43.560106,43.560106 0 0 0 -7.78048,-4.6244 43.560106,43.560106 0 0 0 -55.29206,16.85023 75.950956,75.950956 0 0 0 -81.65324,43.17356 75.950956,75.950956 0 0 0 1.51914,66.3177 50.26166,50.26166 0 0 0 -20.0671,22.25853 50.26166,50.26166 0 0 0 24.70272,66.65063 50.26166,50.26166 0 0 0 8.27194,2.94295 70.366323,70.366323 0 0 0 -5.36147,9.45518 70.366323,70.366323 0 0 0 34.58493,93.30985 70.366323,70.366323 0 0 0 49.31743,3.43683 55.846291,55.846291 0 0 0 32.29974,46.32866 55.846291,55.846291 0 0 0 72.09669,-23.6891 91.587915,91.587915 0 0 0 4.15587,2.16554 91.587915,91.587915 0 0 0 121.45058,-45.01539 91.587915,91.587915 0 0 0 7.5576,-27.00243 58.08014,58.08014 0 0 0 36.4812,-31.43431 58.08014,58.08014 0 0 0 -0.4191,-49.32527 69.249395,69.249395 0 0 0 19.9322,-25.29123 69.249395,69.249395 0 0 0 -34.037,-91.82819 69.249395,69.249395 0 0 0 -55.7116,-0.82286 91.587915,91.587915 0 0 0 -53.2081,-88.51916 z"
         style="opacity:1;fill:#f4c831;fill-opacity:1;stroke:#000000;stroke-width:10.99958324;stroke-linecap:round;stroke-linejoin:round;stroke-miterlimit:4;stroke-dasharray:none;stroke-opacity:1" />
    </g>
    <path
       style="opacity:1;fill:#f4c831;fill-opacity:1;stroke:#000000;stroke-width:11;stroke-linecap:round;stroke-linejoin:round;stroke-miterlimit:4;stroke-dasharray:none;stroke-opacity:1"
       d="m -810.20707,-1995.1647 a 45.026731,45.026731 0 0 0 -36.8105,-30.0109 48.110753,48.110753 0 0 0 -2.0447,-22.5322 48.110753,48.110753 0 0 0 -61.1027,-29.9306 48.110753,48.110753 0 0 0 -7.3258,3.2234 36.391468,36.391468 0 0 0 -1.4747,-6.0768 36.391468,36.391468 0 0 0 -46.2183,-22.6402 36.391468,36.391468 0 0 0 -15.7525,10.7101 40.092294,40.092294 0 0 0 -41.19423,-9.4651 40.092294,40.092294 0 0 0 -27.0144,35.5579 31.45703,31.45703 0 0 0 -17.9424,0.6995 31.45703,31.45703 0 0 0 -20.5483,36.3263 30.223422,30.223422 0 0 0 -5.6723,1.3388 30.223422,30.223422 0 0 0 -20.4165,29.3785 48.727558,48.727558 0 0 0 -26.4455,60.3398 48.727558,48.727558 0 0 0 25.6936,28.4 54.895606,54.895606 0 0 0 -10.5888,53.7915 54.895606,54.895606 0 0 0 40.8196,35.9116 33.924249,33.924249 0 0 0 1.6727,8.2142 33.924249,33.924249 0 0 0 43.0853,21.1049 33.924249,33.924249 0 0 0 2.4074,-0.9375 67.231693,67.231693 0 0 0 73.43493,20.6047 67.231693,67.231693 0 0 0 30.9479,-21.8997 30.223422,30.223422 0 0 0 34.5047,11.2227 30.223422,30.223422 0 0 0 19.3854,-36.3568 30.840228,30.840228 0 0 0 22.6538,1.0984 30.840228,30.840228 0 0 0 20.3201,-34.6552 59.830043,59.830043 0 0 0 5.717,-1.643 59.830043,59.830043 0 0 0 37.2205,-75.9862 59.830043,59.830043 0 0 0 -21.0134,-28.6299 45.026731,45.026731 0 0 0 3.7021,-37.1582 z"
       id="path8049-0"
       inkscape:connector-curvature="0" />
    <path
       style="opacity:1;fill:#f4c831;fill-opacity:1;stroke:#000000;stroke-width:2.36340332;stroke-linecap:round;stroke-linejoin:round;stroke-miterlimit:4;stroke-dasharray:none;stroke-opacity:1"
       d="m 91.33628,911.80849 a 15.953267,15.953266 0 0 0 -14.875244,10.23686 16.292698,16.292697 0 0 0 -1.078141,-0.0539 16.292698,16.292697 0 0 0 -16.292651,16.29264 16.292698,16.292697 0 0 0 4.651161,11.39404 10.182937,10.182936 0 0 0 -1.256585,4.8986 10.182937,10.182936 0 0 0 6.789157,9.5877 30.548809,30.548806 0 0 0 0.159427,0.48007 16.292698,16.292697 0 0 0 -4.912048,11.65563 16.292698,16.292697 0 0 0 16.292652,16.293 16.292698,16.292697 0 0 0 13.45956,-7.11391 30.548809,30.548806 0 0 0 1.718,0.20155 23.760184,23.760182 0 0 0 16.728862,6.91236 23.760184,23.760182 0 0 0 23.7603,-23.76029 23.760184,23.760182 0 0 0 -3.00217,-11.50518 15.274405,15.274403 0 0 0 7.75408,-13.2732 15.274405,15.274403 0 0 0 -15.2742,-15.27455 15.274405,15.274403 0 0 0 -2.39304,0.19774 10.182937,10.182936 0 0 0 -10.16611,-9.70192 10.182937,10.182936 0 0 0 -7.12531,2.91139 15.953267,15.953266 0 0 0 -14.9377,-10.37869 z"
       id="path8259"
       inkscape:connector-curvature="0" />
    <g
       id="g8532"
       transform="matrix(0.21486298,0,0,0.21486297,76.635441,846.1946)"
       style="stroke-width:10.99958324;stroke-miterlimit:4;stroke-dasharray:none">
      <path
         inkscape:connector-curvature="0"
         id="path8310"
         d="M 28.786135,240.58282 A 102.02722,102.02722 0 0 0 -73.2409,342.60985 a 102.02722,102.02722 0 0 0 0.145539,4.11538 62.434572,62.434572 0 0 0 -36.693239,56.79644 62.434572,62.434572 0 0 0 6.23037,27.0628 50.252214,50.252214 0 0 0 -39.73256,49.07659 50.252214,50.252214 0 0 0 32.47102,46.93838 70.048544,70.048544 0 0 0 -17.24192,45.95211 70.048544,70.048544 0 0 0 70.048366,70.0499 70.048544,70.048544 0 0 0 3.915656,-0.13935 48.729418,48.729418 0 0 0 47.859623,39.73102 48.729418,48.729418 0 0 0 7.5712051,-0.62241 76.139722,76.139722 0 0 0 74.6592109,61.53424 76.139722,76.139722 0 0 0 57.553559,-26.35832 135.5287,135.5287 0 0 0 84.06671,29.40384 135.5287,135.5287 0 0 0 135.52766,-135.52768 135.5287,135.5287 0 0 0 -18.68027,-68.33903 51.775008,51.775008 0 0 0 27.81682,-45.87161 51.775008,51.775008 0 0 0 -16.75729,-38.04956 68.525744,68.525744 0 0 0 10.66627,-36.5663 68.525744,68.525744 0 0 0 -68.52484,-68.52637 68.525744,68.525744 0 0 0 -7.70436,0.51868 103.55001,103.55001 0 0 0 -103.4592,-101.02373 103.55001,103.55001 0 0 0 -68.27866,25.87061 102.02722,102.02722 0 0 0 -79.432635,-38.05266 z"
         style="opacity:1;fill:#f38e14;fill-opacity:1;stroke:#000000;stroke-width:10.99958324;stroke-linecap:round;stroke-linejoin:round;stroke-miterlimit:4;stroke-dasharray:none;stroke-opacity:1" />
      <path
         inkscape:connector-curvature="0"
         id="path8103"
         d="m 227.69051,658.38422 a 94.126343,94.126343 0 0 0 26.59237,-118.08129 59.54932,59.54932 0 0 0 9.49087,-5.86254 59.54932,59.54932 0 0 0 11.37205,-83.44336 59.54932,59.54932 0 0 0 -6.95733,-7.65531 57.628376,57.628376 0 0 0 -7.66723,-56.02748 57.628376,57.628376 0 0 0 -50.60082,-22.49731 36.497971,36.497971 0 0 0 -6.96952,-27.84664 36.497971,36.497971 0 0 0 -51.14324,-6.96997 36.497971,36.497971 0 0 0 -10.04268,11.8337 51.865536,51.865536 0 0 0 -6.47446,-11.34172 51.865536,51.865536 0 0 0 -72.676677,-9.90465 51.865536,51.865536 0 0 0 -19.526093,31.70387 97.968239,97.968239 0 0 0 -77.740732,18.1001 97.968239,97.968239 0 0 0 -25.703633,126.51244 67.233101,67.233101 0 0 0 -6.334082,88.46065 67.233101,67.233101 0 0 0 67.31282656,25.03413 53.786484,53.786484 0 0 0 9.58995544,44.39458 53.786484,53.786484 0 0 0 75.368506,10.27005 53.786484,53.786484 0 0 0 15.385279,-18.51244 94.126343,94.126343 0 0 0 126.72464,11.83319 z"
         style="opacity:1;fill:#f4c831;fill-opacity:1;stroke:#000000;stroke-width:10.99958324;stroke-linecap:round;stroke-linejoin:round;stroke-miterlimit:4;stroke-dasharray:none;stroke-opacity:1" />
    </g>
    <circle
       style="opacity:1;fill:#f38e14;fill-opacity:1;stroke:#000000;stroke-width:11;stroke-linecap:round;stroke-linejoin:round;stroke-miterlimit:4;stroke-dasharray:none;stroke-opacity:1"
       id="path8362"
       cx="324.33948"
       cy="-1355.6168"
       r="194.01553" />
    <circle
       style="opacity:1;fill:#f38e14;fill-opacity:1;stroke:#000000;stroke-width:11;stroke-linecap:round;stroke-linejoin:round;stroke-miterlimit:4;stroke-dasharray:none;stroke-opacity:1"
       id="path8384"
       cx="777.16418"
       cy="-1357.7931"
       r="74.916885" />
    <g
       id="g8541"
       transform="matrix(0.21486298,0,0,0.21486297,-370.36246,839.5906)"
       style="stroke-width:10.99958324;stroke-miterlimit:4;stroke-dasharray:none">
      <path
         id="path8352"
         d="m 2082.3047,111.09961 a 130.62431,130.62431 0 0 0 -130.6231,130.62305 130.62431,130.62431 0 0 0 1.7188,20.71484 71.074997,71.074997 0 0 0 -36.2969,61.88672 71.074997,71.074997 0 0 0 2.4277,18.28711 55.707428,55.707428 0 0 0 -32.3085,41.49609 88.36351,88.36351 0 0 0 -4.6954,-0.23437 88.36351,88.36351 0 0 0 -88.3632,88.36328 88.36351,88.36351 0 0 0 30.9882,67.16601 57.628376,57.628376 0 0 0 -4.0957,21.19727 57.628376,57.628376 0 0 0 19.5899,43.22461 67.233101,67.233101 0 0 0 -23.4317,50.90234 67.233101,67.233101 0 0 0 67.2325,67.23242 67.233101,67.233101 0 0 0 2.0215,-0.0723 86.442558,86.442558 0 0 0 -0.1,1.99414 86.442558,86.442558 0 0 0 86.4414,86.44141 86.442558,86.442558 0 0 0 3.793,-0.13282 149.83377,149.83377 0 0 0 147.9629,126.91602 149.83377,149.83377 0 0 0 127.8672,-72.08985 46.102699,46.102699 0 0 0 33.4922,14.46094 46.102699,46.102699 0 0 0 43.0898,-29.86523 48.023647,48.023647 0 0 0 16.459,2.97265 48.023647,48.023647 0 0 0 47.1074,-38.7539 74.916885,74.916885 0 0 0 6.6797,0.33398 74.916885,74.916885 0 0 0 74.916,-74.91601 74.916885,74.916885 0 0 0 -0.7148,-9.64063 49.944592,49.944592 0 0 0 0.7148,0.0352 49.944592,49.944592 0 0 0 49.9453,-49.94336 49.944592,49.944592 0 0 0 -1.0332,-9.85938 80.679726,80.679726 0 0 0 62.504,-78.5039 80.679726,80.679726 0 0 0 -31.9668,-64.1875 111.41486,111.41486 0 0 0 31.9668,-77.96289 111.41486,111.41486 0 0 0 -33.7325,-79.71094 151.75471,151.75471 0 0 0 14.5215,-64.35938 151.75471,151.75471 0 0 0 -151.7539,-151.75585 151.75471,151.75471 0 0 0 -99.168,37.1289 94.126343,94.126343 0 0 0 -77.5586,-40.9707 94.126343,94.126343 0 0 0 -50.5878,14.76758 130.62431,130.62431 0 0 0 -105.0098,-53.18555 z"
         style="opacity:1;fill:#313131;fill-opacity:1;stroke:#000000;stroke-width:10.99958324;stroke-linecap:round;stroke-linejoin:round;stroke-miterlimit:4;stroke-dasharray:none;stroke-opacity:1"
         inkscape:connector-curvature="0" />
      <path
         inkscape:connector-curvature="0"
         id="path8310-7"
         d="m 1880.2168,525.73757 a 119.60633,119.60633 0 0 0 75.0899,151.56761 119.60633,119.60633 0 0 0 4.6257,1.38085 73.191939,73.191939 0 0 0 49.3355,62.04457 73.191939,73.191939 0 0 0 32.3958,3.22239 58.910581,58.910581 0 0 0 39.6214,62.52741 58.910581,58.910581 0 0 0 64.3078,-18.4757 82.117784,82.117784 0 0 0 44.5801,36.37426 82.117784,82.117784 0 0 0 104.063,-51.55365 82.117784,82.117784 0 0 0 1.3129,-4.40148 57.12541,57.12541 0 0 0 62.0693,-38.27029 57.12541,57.12541 0 0 0 2.1465,-8.64325 89.258461,89.258461 0 0 0 96.3321,-59.86677 89.258461,89.258461 0 0 0 -7.7076,-73.80769 158.88006,158.88006 0 0 0 64.1685,-82.35864 158.88006,158.88006 0 0 0 -99.7456,-201.33502 158.88006,158.88006 0 0 0 -82.9103,-4.86343 60.69575,60.69575 0 0 0 -40.5273,-48.09034 60.69575,60.69575 0 0 0 -48.5448,4.35267 80.332608,80.332608 0 0 0 -36.6194,-25.55242 80.332608,80.332608 0 0 0 -101.7995,50.43229 80.332608,80.332608 0 0 0 -2.3116,8.75223 121.3915,121.3915 0 0 0 -150.9899,77.0567 121.3915,121.3915 0 0 0 3.1461,85.53794 119.60633,119.60633 0 0 0 -72.0386,73.96976 z"
         style="opacity:1;fill:#d23017;fill-opacity:1;stroke:#000000;stroke-width:10.99958324;stroke-linecap:round;stroke-linejoin:round;stroke-miterlimit:4;stroke-dasharray:none;stroke-opacity:1" />
      <path
         inkscape:connector-curvature="0"
         id="path8259-4"
         d="m 2029.9549,395.95655 a 74.248558,74.248558 0 0 0 -16.8682,82.33081 75.828314,75.828314 0 0 0 -3.7901,3.29789 75.828314,75.828314 0 0 0 -2.0844,107.21683 75.828314,75.828314 0 0 0 52.363,23.21275 47.392698,47.392698 0 0 0 11.5897,20.48563 47.392698,47.392698 0 0 0 53.7065,10.25573 142.17809,142.17809 0 0 0 2.0837,1.09582 75.828314,75.828314 0 0 0 21.1289,54.94482 75.828314,75.828314 0 0 0 107.218,2.0855 75.828314,75.828314 0 0 0 22.1955,-67.28792 142.17809,142.17809 0 0 0 6.4129,-4.86682 110.58295,110.58295 0 0 0 78.4156,-30.78748 110.58295,110.58295 0 0 0 3.0397,-156.3591 110.58295,110.58295 0 0 0 -47.1902,-28.90579 71.089042,71.089042 0 0 0 -16.8149,-69.54007 71.089042,71.089042 0 0 0 -100.5158,-1.95519 71.089042,71.089042 0 0 0 -7.389,8.38416 47.392698,47.392698 0 0 0 -65.4024,0.25644 47.392698,47.392698 0 0 0 -14.5072,32.75471 74.248558,74.248558 0 0 0 -83.5913,13.38128 z"
         style="opacity:1;fill:#f38e14;fill-opacity:1;stroke:#000000;stroke-width:10.99958324;stroke-linecap:round;stroke-linejoin:round;stroke-miterlimit:4;stroke-dasharray:none;stroke-opacity:1" />
    </g>
    <g
       id="g8546"
       transform="matrix(0.21486298,0,0,0.21486297,-550.45402,833.72996)"
       style="stroke-width:10.99958324;stroke-miterlimit:4;stroke-dasharray:none">
      <path
         inkscape:connector-curvature="0"
         id="path8049-5"
         d="m 3135.7418,219.70279 a 90.648879,90.648879 0 0 0 -93.6235,19.41724 96.8577,96.8577 0 0 0 -37.8022,-25.40977 96.8577,96.8577 0 0 0 -124.3372,57.47601 96.8577,96.8577 0 0 0 -4.2635,15.53874 73.264163,73.264163 0 0 0 -11.3673,-5.41035 73.264163,73.264163 0 0 0 -94.05,43.47411 73.264163,73.264163 0 0 0 -3.2633,38.21013 80.714755,80.714755 0 0 0 -67.0856,52.35001 80.714755,80.714755 0 0 0 21.2644,87.35119 63.330037,63.330037 0 0 0 -21.685,28.92306 63.330037,63.330037 0 0 0 30.6736,78.22332 60.846508,60.846508 0 0 0 -5.1091,10.56265 60.846508,60.846508 0 0 0 19.985,69.19699 98.099468,98.099468 0 0 0 60.7085,117.92311 98.099468,98.099468 0 0 0 76.9934,-4.09218 110.51713,110.51713 0 0 0 70.6067,84.83372 110.51713,110.51713 0 0 0 107.9328,-18.19064 68.297099,68.297099 0 0 0 14.9583,7.81434 68.297099,68.297099 0 0 0 87.6735,-40.52804 68.297099,68.297099 0 0 0 1.5915,-4.9517 135.35243,135.35243 0 0 0 125.421,-88.5846 135.35243,135.35243 0 0 0 5.0705,-76.158 60.846508,60.846508 0 0 0 61.3395,-39.66648 60.846508,60.846508 0 0 0 -32.1978,-76.44493 62.088277,62.088277 0 0 0 30.4757,-34.00216 62.088277,62.088277 0 0 0 -28.3526,-75.74541 120.45126,120.45126 0 0 0 4.6906,-11.01863 120.45126,120.45126 0 0 0 -71.4769,-154.62214 120.45126,120.45126 0 0 0 -71.411,-3.51258 90.648879,90.648879 0 0 0 -53.36,-52.95707 z"
         style="opacity:1;fill:#7a7a7a;fill-opacity:1;stroke:#000000;stroke-width:10.99958324;stroke-linecap:round;stroke-linejoin:round;stroke-miterlimit:4;stroke-dasharray:none;stroke-opacity:1" />
      <path
         inkscape:connector-curvature="0"
         id="path8310-4"
         d="m 2945.6163,294.28564 a 102.02722,102.02722 0 0 0 -102.027,102.02703 102.02722,102.02722 0 0 0 0.1455,4.11538 62.434572,62.434572 0 0 0 -36.6932,56.79644 62.434572,62.434572 0 0 0 6.2303,27.0628 50.252214,50.252214 0 0 0 -39.7325,49.07659 50.252214,50.252214 0 0 0 32.471,46.93838 70.048544,70.048544 0 0 0 -17.2419,45.95211 70.048544,70.048544 0 0 0 70.0483,70.0499 70.048544,70.048544 0 0 0 3.9157,-0.13935 48.729418,48.729418 0 0 0 47.8596,39.73102 48.729418,48.729418 0 0 0 7.5712,-0.62241 76.139722,76.139722 0 0 0 74.6592,61.53424 76.139722,76.139722 0 0 0 57.5536,-26.35832 135.5287,135.5287 0 0 0 84.0667,29.40384 135.5287,135.5287 0 0 0 135.5277,-135.52768 135.5287,135.5287 0 0 0 -18.6803,-68.33903 51.775008,51.775008 0 0 0 27.8168,-45.87161 51.775008,51.775008 0 0 0 -16.7573,-38.04956 68.525744,68.525744 0 0 0 10.6663,-36.5663 68.525744,68.525744 0 0 0 -68.5249,-68.52637 68.525744,68.525744 0 0 0 -7.7043,0.51868 103.55001,103.55001 0 0 0 -103.4592,-101.02373 103.55001,103.55001 0 0 0 -68.2787,25.87061 102.02722,102.02722 0 0 0 -79.4326,-38.05266 z"
         style="opacity:1;fill:#313131;fill-opacity:1;stroke:#000000;stroke-width:10.99958324;stroke-linecap:round;stroke-linejoin:round;stroke-miterlimit:4;stroke-dasharray:none;stroke-opacity:1" />
      <path
         inkscape:connector-curvature="0"
         id="path8103-7"
         d="m 2887.7251,405.98231 a 94.126343,94.126343 0 0 0 -14.2639,120.19519 59.54932,59.54932 0 0 0 -8.8352,6.81075 59.54932,59.54932 0 0 0 -2.6996,84.17145 59.54932,59.54932 0 0 0 7.7103,6.89636 57.628376,57.628376 0 0 0 13.4085,54.93706 57.628376,57.628376 0 0 0 52.6524,17.15498 36.497971,36.497971 0 0 0 9.8062,26.97863 36.497971,36.497971 0 0 0 51.5896,1.65452 36.497971,36.497971 0 0 0 8.7676,-12.80692 51.865536,51.865536 0 0 0 7.6105,10.61296 51.865536,51.865536 0 0 0 73.3108,2.35126 51.865536,51.865536 0 0 0 16.1498,-33.54978 97.968239,97.968239 0 0 0 75.4577,-26.02664 97.968239,97.968239 0 0 0 12.5097,-128.48957 67.233101,67.233101 0 0 0 -2.8292,-88.64206 67.233101,67.233101 0 0 0 -69.537,-17.95344 53.786484,53.786484 0 0 0 -14.1206,-43.16778 53.786484,53.786484 0 0 0 -76.0259,-2.43684 53.786484,53.786484 0 0 0 -13.3925,20.00137 94.126343,94.126343 0 0 0 -127.2692,1.3085 z"
         style="opacity:1;fill:#d23017;fill-opacity:1;stroke:#000000;stroke-width:10.99958324;stroke-linecap:round;stroke-linejoin:round;stroke-miterlimit:4;stroke-dasharray:none;stroke-opacity:1" />
    </g>
    <g
       id="g8551"
       transform="matrix(0.21486298,0,0,0.21486297,-702.96903,828.995)"
       style="stroke-width:10.99958324;stroke-miterlimit:4;stroke-dasharray:none">
      <path
         inkscape:connector-curvature="0"
         id="path8310-7-9"
         d="m 3629.6898,321.33952 a 104.3312,104.3312 0 0 0 -93.6183,114.04168 104.3312,104.3312 0 0 0 0.5598,4.17351 63.84447,63.84447 0 0 0 -31.657,61.47261 63.84447,63.84447 0 0 0 9.0491,26.91757 51.387008,51.387008 0 0 0 -35.5228,53.92058 51.387008,51.387008 0 0 0 37.7428,44.51803 71.630378,71.630378 0 0 0 -12.9474,48.48982 71.630378,71.630378 0 0 0 78.2973,64.27682 71.630378,71.630378 0 0 0 3.9709,-0.53358 49.829825,49.829825 0 0 0 52.6819,35.64284 49.829825,49.829825 0 0 0 7.6429,-1.39104 77.859107,77.859107 0 0 0 82.1373,55.14921 77.859107,77.859107 0 0 0 55.9324,-32.58459 138.5892,138.5892 0 0 0 88.4954,21.50949 138.5892,138.5892 0 0 0 124.3581,-151.48733 138.5892,138.5892 0 0 0 -25.8502,-67.67708 52.94419,52.94419 0 0 0 23.7171,-49.46628 52.94419,52.94419 0 0 0 -20.8615,-37.04478 70.073191,70.073191 0 0 0 7.1948,-38.28019 70.073191,70.073191 0 0 0 -76.5942,-62.87874 70.073191,70.073191 0 0 0 -7.7889,1.29882 105.88838,105.88838 0 0 0 -115.3986,-92.454 105.88838,105.88838 0 0 0 -66.8959,33.1616 104.3312,104.3312 0 0 0 -84.645,-30.77497 z"
         style="opacity:1;fill:#7a7a7a;fill-opacity:1;stroke:#000000;stroke-width:10.99958324;stroke-linecap:round;stroke-linejoin:round;stroke-miterlimit:4;stroke-dasharray:none;stroke-opacity:1" />
      <path
         inkscape:connector-curvature="0"
         id="path8049-08"
         d="m 3747.1036,408.94012 a 44.831604,44.831604 0 0 0 -40.1428,24.99419 47.902261,47.902261 0 0 0 -21.8842,-5.34174 47.902261,47.902261 0 0 0 -47.9028,47.90274 47.902261,47.902261 0 0 0 0.6734,7.94041 36.233761,36.233761 0 0 0 -6.1999,-0.57096 36.233761,36.233761 0 0 0 -36.2343,36.23353 36.233761,36.233761 0 0 0 5.0076,18.2931 39.918551,39.918551 0 0 0 -22.2033,35.75069 39.918551,39.918551 0 0 0 24.7809,36.91613 31.320708,31.320708 0 0 0 -5.1285,17.12684 31.320708,31.320708 0 0 0 27.5904,31.07319 30.092446,30.092446 0 0 0 -0.5684,5.77494 30.092446,30.092446 0 0 0 21.0882,28.70795 48.516393,48.516393 0 0 0 48.3082,44.3737 48.516393,48.516393 0 0 0 35.0396,-15.0419 54.657711,54.657711 0 0 0 47.2545,27.3249 54.657711,54.657711 0 0 0 46.9943,-26.8674 33.777235,33.777235 0 0 0 8.2771,1.074 33.777235,33.777235 0 0 0 33.7776,-33.7777 33.777235,33.777235 0 0 0 -0.1066,-2.5701 66.940338,66.940338 0 0 0 43.0958,-62.5275 66.940338,66.940338 0 0 0 -10.6465,-36.21585 30.092446,30.092446 0 0 0 21.7011,-28.88255 30.092446,30.092446 0 0 0 -27.9942,-29.9875 30.706579,30.706579 0 0 0 8.3418,-20.98493 30.706579,30.706579 0 0 0 -26.09,-30.31916 59.570764,59.570764 0 0 0 0.2964,-5.91521 59.570764,59.570764 0 0 0 -59.5711,-59.57027 59.570764,59.570764 0 0 0 -33.7465,10.55921 44.831604,44.831604 0 0 0 -33.8078,-15.47275 z"
         style="opacity:1;fill:#313131;fill-opacity:1;stroke:#000000;stroke-width:10.99958324;stroke-linecap:round;stroke-linejoin:round;stroke-miterlimit:4;stroke-dasharray:none;stroke-opacity:1" />
    </g>
    <g
       id="g8555"
       transform="matrix(0.21486298,0,0,0.21486297,-843.68587,821.49918)"
       style="stroke-width:10.99958324;stroke-miterlimit:4;stroke-dasharray:none">
      <path
         inkscape:connector-curvature="0"
         id="path8089-7"
         d="m 4444.7734,441.16755 a 81.098489,81.098489 0 0 0 -87.5199,12.98338 38.571233,38.571233 0 0 0 -6.8894,-4.09477 38.571233,38.571233 0 0 0 -48.9596,14.92039 67.252407,67.252407 0 0 0 -72.3016,38.22894 67.252407,67.252407 0 0 0 1.3452,58.72244 44.505268,44.505268 0 0 0 -17.7689,19.70935 44.505268,44.505268 0 0 0 21.8735,59.01721 44.505268,44.505268 0 0 0 7.3247,2.60585 62.307374,62.307374 0 0 0 -4.7475,8.37231 62.307374,62.307374 0 0 0 30.624,82.62326 62.307374,62.307374 0 0 0 43.6692,3.04319 49.450299,49.450299 0 0 0 28.6005,41.02274 49.450299,49.450299 0 0 0 63.8395,-20.97602 81.098489,81.098489 0 0 0 3.68,1.91749 81.098489,81.098489 0 0 0 107.541,-39.85985 81.098489,81.098489 0 0 0 6.692,-23.90986 51.428309,51.428309 0 0 0 32.3031,-27.83418 51.428309,51.428309 0 0 0 -0.3711,-43.67614 61.318366,61.318366 0 0 0 17.6494,-22.39464 61.318366,61.318366 0 0 0 -30.1388,-81.31126 61.318366,61.318366 0 0 0 -49.331,-0.72865 81.098489,81.098489 0 0 0 -47.1143,-78.38118 z"
         style="opacity:1;fill:#7a7a7a;fill-opacity:1;stroke:#000000;stroke-width:10.99958324;stroke-linecap:round;stroke-linejoin:round;stroke-miterlimit:4;stroke-dasharray:none;stroke-opacity:1" />
    </g>
  </g>
</svg>
